# xmcd CD database file
#
# Track frame offsets:
#	150
#	10215
#	22115
#	41312
#
# Disc length: 1025 seconds
#
# Revision: 3
# Processed by: cddbd v1.5.2PL0 Copyright (c) Steve Scherf et al.
# Submitted via: CDex 1.51
#
DISCID=2503ff04
DTITLE=Cutie Pai - まゆきわチッ！
DYEAR=2006
DGENRE=Techno
TTITLE0=Hello!! CutiePai
TTITLE1=電撃マ王サマ
TTITLE2=Yell～キラキラの魔法にのせて～
TTITLE3=電撃マ王サマ お世話になってますRemix
EXTD=YEAR: 2006
EXTT0=
EXTT1=
EXTT2=
EXTT3=
PLAYORDER=
